# xmcd
#
# Track frame offsets:
# 150
# 16787
# 31815
# 45410
# 64695
# 79512
# 94805
# 109395
# 127127
# 143482
# 161845
# 173077
# 196557
# 210247
# 226380
#
# Disc length: 3203 seconds
#
# Revision: 0
# Processed by: cddbd v1.5PL3 Copyright (c) Steve Scherf et al.
# Submitted via: MacMP3 Pro 5.0 (http://mp3.act2.co.jp/)
#
DISCID=b50c810f
DTITLE=STACIE ORRICO - STACIE ORRICO
DYEAR=1900
DGENRE=
TTITLE0=Stuck
TTITLE1=(there's gotta be)More To Life
TTITLE2=Bounce Back
TTITLE3=I Promise
TTITLE4=Security
TTITLE5=Instead
TTITLE6=Hesitation
TTITLE7=Strong Enough
TTITLE8=I Could Be The One
TTITLE9=Maybe I Won't Look Back
TTITLE10=Tight
TTITLE11=That's What Love's About
TTITLE12=Until I Find You
TTITLE13=Star Of My Story
TTITLE14=Stuck (Thunderpuss Radio Remix)
EXTD=
EXTT0=
EXTT1=
EXTT2=
EXTT3=
EXTT4=
EXTT5=
EXTT6=
EXTT7=
EXTT8=
EXTT9=
EXTT10=
EXTT11=
EXTT12=
EXTT13=
EXTT14=
PLAYORDER=
